<mxfile host="Electron" agent="Mozilla/5.0 (Windows NT 10.0; Win64; x64) AppleWebKit/537.36 (KHTML, like Gecko) draw.io/25.0.2 Chrome/128.0.6613.186 Electron/32.2.5 Safari/537.36" version="25.0.2">
  <diagram name="Page-1" id="X6U52luH2ryi6jcxI2d2">
    <mxGraphModel dx="917" dy="557" grid="1" gridSize="10" guides="1" tooltips="1" connect="1" arrows="1" fold="1" page="1" pageScale="1" pageWidth="850" pageHeight="1100" math="0" shadow="0">
      <root>
        <mxCell id="0" />
        <mxCell id="1" parent="0" />
        <mxCell id="XWmum2CBMNlat4GcM_Pf-249" style="edgeStyle=orthogonalEdgeStyle;rounded=0;orthogonalLoop=1;jettySize=auto;html=1;strokeWidth=2;fontStyle=0" edge="1" parent="1" source="XWmum2CBMNlat4GcM_Pf-252" target="XWmum2CBMNlat4GcM_Pf-266">
          <mxGeometry relative="1" as="geometry" />
        </mxCell>
        <mxCell id="XWmum2CBMNlat4GcM_Pf-250" value="&lt;span&gt;&lt;font face=&quot;CMU Sans Serif&quot; style=&quot;font-size: 20px;&quot;&gt;SLA&lt;/font&gt;&lt;/span&gt;" style="edgeLabel;html=1;align=center;verticalAlign=middle;resizable=0;points=[];fontStyle=0" vertex="1" connectable="0" parent="XWmum2CBMNlat4GcM_Pf-249">
          <mxGeometry x="-0.1311" y="-1" relative="1" as="geometry">
            <mxPoint y="14" as="offset" />
          </mxGeometry>
        </mxCell>
        <mxCell id="XWmum2CBMNlat4GcM_Pf-251" value="&lt;span&gt;&lt;font face=&quot;CMU Sans Serif&quot; style=&quot;font-size: 20px;&quot;&gt;( CLI )&lt;/font&gt;&lt;/span&gt;" style="edgeLabel;html=1;align=center;verticalAlign=middle;resizable=0;points=[];fontStyle=0" vertex="1" connectable="0" parent="XWmum2CBMNlat4GcM_Pf-249">
          <mxGeometry x="0.5544" y="1" relative="1" as="geometry">
            <mxPoint x="-30" y="-14" as="offset" />
          </mxGeometry>
        </mxCell>
        <mxCell id="XWmum2CBMNlat4GcM_Pf-252" value="" style="shape=actor;whiteSpace=wrap;html=1;fillColor=#f5f5f5;strokeColor=#666666;fontColor=#333333;fontStyle=0" vertex="1" parent="1">
          <mxGeometry x="40" y="235" width="51" height="60" as="geometry" />
        </mxCell>
        <mxCell id="XWmum2CBMNlat4GcM_Pf-253" value="" style="group;fontStyle=0" vertex="1" connectable="0" parent="1">
          <mxGeometry x="340" y="360" width="100" height="90" as="geometry" />
        </mxCell>
        <mxCell id="XWmum2CBMNlat4GcM_Pf-254" value="" style="rounded=0;whiteSpace=wrap;html=1;fillColor=#eeeeee;strokeColor=#36393d;align=left;fontStyle=0" vertex="1" parent="XWmum2CBMNlat4GcM_Pf-253">
          <mxGeometry width="100" height="90" as="geometry" />
        </mxCell>
        <mxCell id="XWmum2CBMNlat4GcM_Pf-255" value="" style="shape=image;verticalLabelPosition=bottom;labelBackgroundColor=default;verticalAlign=top;aspect=fixed;imageAspect=0;image=data:image/png,iVBORw0KGgoAAAANSUhEUgAAASwAAAEfCAYAAAD7k/t2AAAAAXNSR0IArs4c6QAAIABJREFUeAHtfQmcH0WVf7Lrrq66uh677qqrq677X89dV11xXRUFMl2dBEEJhyIqCogYmK6ehHN++Znprp4Q5AiKgoIHoC4qhyiCgjHzGxABURA8OAREkBtCgNz5/fPtrpr09PRRfXf/pubzmU//uruOV69evX716h1z5qg/hQGFAYUBhQGFAYUBhQGFAYUBhYGaMbBo0Xl/SRZ3n7Pb0hUvJkvGXkVM9lp92P5P3bDeQqi1k//fez7+Bp2yf5tHrX/e5TD2ArJ41dNrHoLqXmFAYaDtGNj5U91nzx+xX09Mm+iG80lCbYtQ50xiOJcQyq4llN1BKHuMULaNUNbP+b+eUHYPoezXxGCrCWXfIpSdRAzb1A17b32EvU1fcvw/zpnTn9t2vCr4FQYUBjJiYNcjx5+rDbO3awb7CKH2cmKyb+qU/ZxQ9kBOBpSXgUXVf0qn7LeEsh/olJ1CDOfTmmkPzRsZe0W32/2LjGhQ1RQGFAaahAEsZmzDNOos0g3muFKSwe5uKFOKYlZJz9dxZnuGZjifAiNeeHD3mU2aBwWLwoDCQAgGhozu83XKFmjUZhplPyGUPT5gzCmJeYn3WwhlNxOTnbV9y3kQ9GtqWxlCMOqRwkCVGIB+RzOd/Yhpf4FQdmNBeiWx6Afsaj+oG+y7mmkb803nzWorWSWlqr5mJQbefPDpfzWf2u/RTed4YrAbFIPKofQ32UNQ8mvU/ujuR9gvmpUEpQatMFA0BuaNrPwH3XQ+Qah9Pj+dGzDJJwfTyX9KKXC5FXowndpdzXTeqraPRVOxam+gMQAbJUKdfQhllxLKoI8RC0tdK8CFTtkfiME6umm9fKAJTQ1OYSArBrDdw1G9TtmXCWWPKCbVCCa9lVB7jUbZIWQx+/usc6vqKQwMDAZcK3DYFjXXBkpJdZ5UB0n3Us2w9925233GwBCgGojCQBIGYLjpWZGzXyhJqhGSVFqm/DAMWIeM8dclzbV6rzDQWgzAv06nztmEMrikpF0kqnwTcWawq3EoooxVW7ssFeB+DHi6KWc/Qtk1ikkNNJN+mFB7nCxd8VL//KvfCgOtwIAbzYDaB7gnTk2UDBRMZUmsGwllpw0N2//UCkJVQM5uDGBrAGtqHtWgrEWh2m0+w31Ko/aXlJ5rdvODxo4eYVk0kx2lTvsGetuX5UOxjRjs27ox/obGEq8CbPZgYJFx4t8gfhOh9oNKR6WYVQwNbNMpO2/+8IrXzJ7VoUbaGAyAUemmfQQPQJfly6vqNH9bV8YcbdGp85X5hvPKxhCzAmRwMQAvfzjMksGLK1XG4lRtRjPlza6OSynnB5dZ1D2y7WF8300ouz5G7FcLNHqBKtyE42Ydoc6xynq+7tU9QP3DMt2Nax5OcGohKrzkpwHDuYUMs3cM0LJRQ6kaA9yW6kClp1LK9IqkaoS5+eJC84QXVk3rqr+WY2Bo2P4vniUm/9dTSSAKh+loYC1s+Xbudp/W8mWkwC8bAzD8JKZzgopDpaSqiqSqSGauUXYdonmUTfOq/ZZigCvVb6ubUFX/iln6aGCTmxtSJZ5tKVcpAex5IyufRShbRSjb6iOUyC+fKqMYSg008GtCnTeVQP6qyTZhABmOCWV/rIEAFUNMp9dR+KJsE1K4wWi5TWtMwVoABtwkoyYbU5lnlLTUuo+VyX6p4s0XwATa0gTSOhHKLmsdoSqJRElZggZM9pBG2e5tWXMKzowY0Ki9C6Hsz4pZKclqAGhgGzGckxd1u3+dcTmoak3FALaASN2kzBVyMSoEp7vHTeJqsNWEsgsIdb6mm/bnCWUrcZqF3H46dY5GqB033A5wbrLPIBon4qDDf04z2f8hoYOXC5D9gVC2dgCYR23SH/C44PDxlzV17Sm4UmJgHrX+WadsQi2KRGb1lJdR2j4ftmg6tQ8bGrHnayP2G3c5jL2gzASjbpieJWOv8kxL7APcj4vJvkoomySU3afmLmnu7Ad1Y/x9KZeGKt40DGgjzs6EsvsVwc8g+Nt1g31Xo84yYrI9hgznX+GK1LT5E/CAYerm+LvARHnuxmtVMo8Zc9rHFlFZyAuqadkVOeQIZZsUs2J9xJaHn5pu2Hvj0KFlUxkKLnQ3cBjWDHYcoeynaq6nGNjFyvQhlGSa+5CYbOmsNgR143U5ZxJqHzBbgsXBABjZs4nBbGKyq2a1vtJkVw3Kh6m5XKYAyNyvLsVCnfra1KYMrRiGrRp1riTUOXL+iP36MvVNBUxTJU3MP8p5HpeyzyGUPVLxfDSB7u70aKESdKtO0mJgt6UrXkwMdvUsIkyc2l1EqH2g+prGUwvyQ+qmvRuh7NRZFi32MWJYC+Oxo95WjgFistcSyu6aBcxqG/Q1yDa8x3D37ypH9AB06Hk5jL+LUHYGoezR2UEzzpEDMHWDMYT51PofQtnDA054dxBqL583MvaKNs9ad3X3ad2e88pub2zXzqT1kdEJa2lnYowtm7BOXTZpfWnZpPUV979nnb5swjqpMzG2fHTSGu70rP26a6x3LeuNv6zb7/5FUThAaGLNdPYjBrti4N20DOdkMOuicKfayYAB3XA0QtmTA8qsNiOnHRlx3ttGndTB153+V6O95W8b7Vm0M2Gd0+lZN3R61oZOz+rn/H+qM2nd2OlZ3xidtEZGJ9k7u6u7z8hAPtOqwD/PNfOAceyA6kB16pytzB6mTXt1N0OGsyuhbMMAEtcm2Bq1UZrqXtd9ZqdnLVrWG/tmp2c9lpMxpWFs6zs965LO5Nghx1ydz2wDBzcaZYcMsIrhXCVpVcen3J64T+ATA8as1sF9pW2e+Ef+ePy5oxP2R0cn7Is6PeuJCplUFEPb1unZV0OyO/Yq6yVZSdNjXPZHCWU3Dxid9YnJzlrUYEPhrHPWyHpwQSCUPTVARHS/aze2uPucRiI8BKh+vz93dIK9e1lv7NxOz3qqAUwqinltgeTVnRjbY9F52Sz5IY1olOnb3YbgP9kEc4VCYNAM9nW1PQwh7iIfwRByYAwCTfYQGBXiyBeJozLbWnzJqqd3emMf4zqkKCbRzOeT1h2dnn1k96ru87PiyHP1snsDw7gM5xJlFZ+VGhLqadTef0Cs1x/XETywRRLVyGUrnzXas47q9Kz7GixNyTLKxzu9Mau7OrtZCJe4bhgQxvUjxbQSmE/a18RkexHKNrecQDbopnP8kJH9C58Wb3nLw4SgMzn28U7PuncAGNV0hjZhPdSZGFsMU4sseHK3ip6/6u9bTpd93XC+D+PaLHhQdQIY4KYLsOouZO9eUzsXkSVjrwoMrdG3o73l/9HpWT8fOEY106ziVzC/yDoZrjuYYZttj+uFOGVKEZ+VCng93Rh/A6FsXU1MJj+DNNlDOnU+kBMNlVfv9MYO6/SsjbOAWQmpa8uyScuG7VhWZJOlK15KKPtRa2nVEwhWZh3/rK+3wLBeQii7s8UEcO68kZX/0KaJ7K7u/mOnZ31vFjEqwbDE9WfHXmm9PPuc9edqBvt4yz0vDso+/llaE572XvTLVm4Df41gc22bOmyLOj37nlnMrDymNWE9BNehPPMHZ3SdOl9p6SHRFpXgIsXs73rk+HMJZYgomX9LVm0bcKWxSQuz9HYmrA803J5KSEBVXTfDaj4F2YYWRchnBE9sIS0/OWSwd4YOSj3cgQEYsrUyBZfh3KKPsMyK2x0YqP4XPwXcOuslq5nK+P7ohNXJOyM7f6r7bCTfaCHTWjc0bP9X3vEPdH2egaVVkpXn97fyWW2cGM6stilmFe2QvaxnjRUxt5rh7ElgLFyt1J93Lf0JceaKGP/AtcENQ/MiuMr6GxGXqq0T0Z0c273Ts+C6UtU2q7X9ICpEEfMMh3ZC2U1tYlrIOKXMHQKzj1CuLTNfuFkftv8zMIzW3HbXWP+jdFapGDWk0P2KmODdl674W575p8qPa96+VhQx9oFoA5EzCWW3tuWrAwM76CXaivzuZPfFnZ71ZyVZpWJYkA6f6k4Up9Mh1NmHUNaWiCPbkHGprTRfGNxwbyCUXdwSZrUFzsptDKYnJgwRC0Z71mrFrFIzK7Gdva17dXFRNbhh9G0tof91CEUuaGlWXpHWvCWTtRYOr22fJDcksdJZCeaT7TphfbVIOkCSWI2yn7RhHeiU/bbNu4tc88Z9BLe0YKIGIl3ScWvGXt3pWYjMmW2hqnpTeOtOjhX68WpZerpzcy38NlbWKfu3NjiLItefvuT4f2wjjoMwj/asHypmVRiz/kMRceSDc8SzWCMzUl4lean1NdM2grAP7L0XwRFJP5s9KW7OvxZarYcRTrc3trNiVoUxK0/SmhgrZdHyIJVND6W0WTest4TR2sA9I14ojlK/AHmZoU7ZeRDTBwX5StFeMLPytsf3dleXc1rMw4Cvz0vHJde/aeAD/2kj9hubn+nGOXOQDOWQBktJV6UwrEJcd6I+ikjv1nSzByRNiYK/9c+9QGes0WFlNco+hy1r65HtG0Dd4WJGJ8phFg1hwmuRNciH7kJ/8iTBa0uWlPLsdrYhg1Whg25KY24kg2brrU6tw8bKjZd+JXs7MiF3evayTs86o9Ozzu/0rMuxleP/P+bPzuj0xrpIq9WdtHZC3bj57fbYv3V6VmbH5rzMZnSN1V/6w4FmWH0EO4ybg7zvWsC07mxTfgKp+ZhvOm9uckx2SFZVMSvjqhP/Bsfiy3rWKTwbch5/PtS9eVnPOh2prJDI1D8hnUn7tDySCL3QnjrKz9LO4v+z+2BaWeq2ps6EfY0f52X8bjrT0in7YhnjrqVNBLfXKftVg8Xak8reBsLCvNsbW9CZtL7T6VlPlrgYH+/0rC+PXrn8rd2r2L/nTWz6qXPs/lE/ys5wDjw9H8MrEU+FMtHuaudfyl5ciK1FKHuyoetoG1KglY2DStrXKDu8oUjuE+qcWSYSkHC0M2nts91x9vdtWXx+OA/9ut1ffF42pmN+z+ofdGa2un4YWvG7gGB/MnTIFfFNTchyc+sPqxBLh1D2SBMZlm6yH5dputBdM/beTs++rhULLsKKHQzrwC9kYzof/bzdHz4/W92sOMurc8vaLzJgyzCcIspoprMfoayRxqW6aR9RxBhraqM/t8HRQ69HmI8yENO9yvnX0Z51cVbib1K9T51r9/caY6m3T2Acux/N+sf+JPt2Mgsell5SbX9TME5ad5RBS1FtwtK8iUIAoezxBYePvywK7kY/10324YYi9a6hYfufykBeZ2LsoLx6o6lFECH1FP0+7hTv8PPsPjFZ/5jL0zGCI75r9/c4Lj2jyzs2KPnztpG1/lE953ll0FRUm4SyVY1cXwa7oqoDrCjcpH6OY05C2Z8biNDHYbyaekAJFRZfsurpnQnrq1mJvc56h3wtepGbF1uujQ6U72lg/Mjn7P6+K9LVSdN+VFnAeeRl6ZhrVFtpn49eyd6eQCaFvoa+CBmbG7jG+prBPlLoYMtuDCnZG4jIrWWkL4LhYGfSWpOWwJtS/uCz7D69KHyRY0uHedzv+HTMB9IVdFhVj/Gwb9j9uqSs0Ql737LXVbB9qDUaGnL53rJULkEc5L7nCVAb6Adlj+ceXKABV7LqWb2qF2aR/R19udVfZDG4mYQymN2PYX19RF4fddRlHpMDIywSTpm2oHOr62RytGcdHiCPSm7nmezfm2nu4IxWgoC8nRDKzmiadIUTQdiD5R2bv3633/2LzoT1LZmF1PQyHzvN7h/4xXAGg60d5lN2W/jpb/Hy54a3VyYuPvk1u4/taJl9RLY9ade2QLEFa9qaI5Q9iuCE/jXTuN8IoUooa1pQvpvLEE87PftzkcRbkcK8qP6P+6nVf3+X9T/59ZmLHRILFgOkMJn+PnqaV/6I78xsS6Z+njKf+JLd/9CJ1fcLmJf1xr5W54IklK1oHNMynJPrxEli3xq1L2wY0p4YMsZflwh4ygKjPfvAPAuriXWPvNTqY/sH63T/9nCEK94xr1G6Lv949mZenLO8bj3+NmV/H3CK3d9vZT0Mi/tsnrXdVWoREn2kJKkCivfnNlAJv1EbLt8LIBPykPm4YcyqrxvsY5kGE1Pp2DXWP3d6FlxgpCSOusuB+cienI1832NaYDp+l5z3HecxoX3Gk6WshUd7ZXHCWPXY97ZZ/4Mn1MawguO9jTuyLywjOmkYiWILRgx2d7PWoVOr5BmGJ/cZ9ETNQhT7ViSwOV60TW8Fa/M0DshgVB9YzvoLlrL+QV+2+8eutlz9lphb48JoRiROFVEWzK9qhrXgSNbf/6TGMCz/+NfC7AWRX+GulYP8EqvOp/Z7CGVbxXw14Lpl/vCK1yQCXmWBIcPZtQGIcXUtHI4/It9h0TgYXbP8TZ2e1arU7od8Nf0CBpP64EpPF7XwSOZus8T87uNEtwcmJcrlZVhpmCwYI6zc0TcOEKpmlCn7++3opDXcXV08fQp6b5w+y2TfFLA14Nqfq1F2nSDUJlzLsLcCottoHAoleMoF5ZWfsFxbqrD5pBeFtwlFuygfVUYWFujOZMui3KHneH1nYdBp+imw7KOjPYsefF2xp9eg05273Wc0LDnxFiSeaQCzmjMH+foEkTbhinjsZSBm6eSKv22b2w1O/z702XDmIrvwYCoAOyz/3O7jhOuyDvvmDoaV1/EZNlWyMKIcTgcBYx2nk2ngDCmLSB57Fk2zfNfTJCfpUlQ0qfFGqN3zE3PNv++fN7LyH1IPQqJCZ9L6UAixpVpUVddf8gNva5e3X5wO4gTRP7dhFuUwixBlYI+Vp980WztsH6G/Qt/HXJFOMssDY5F1kYat23NeKUGK0kUQWE/MRwOu24bo+H9IA19GQTLM3tEARIhFsg3JWcsYJ9rs9KxvFEmgVbQFKQcnfkX0BWU8bLHEfL/vWOYq5P1tYzsm3ufZmoEBpfFFBPNEv3t2ihmrf0wV/36iM2Ev6a7uPq0IOt71yPHnEsruEnPSgOs5RYwrcxvNsrsqNxhfp2f9sWLizc1osD2CSUJRcIOR4BROEP5HA1blcMcR7z6WMY4WYIX+Kg3D2u94r9+PnJpPqisKT/nbGZvsru6+NPPC9FUcMtg7G3RquLm28DMLloy9ujGIMNlDZboBdK/qPj8/EVa/VTEu8BZy2m1SXHnYdX34FM6YTDYtSJ9fwspjD4Wt5QcldW8weNVNT/I7/NuDwrBcWrl/dIK9w8d7Mv8klJ0mPiS1X03nhMwDyVOxSfF4NMoOyTOWpLqjveVvbiPDwmIGgYbpm+LGk2TRDqYllNzYGgoG59dhwdUnro+4d/ufaPcPkJSWUA5jhA4rrSlEHAwNebcBlvNJ9Jn0fsjoPp9Q+8HamZWXNevRnT9VTgLaSDwg4yuh7LFGIMB0fld2LOnOpL1bQwg4FRMAY8EJHySiNPCDASUxuePWeAamoAHhv4fwLoIm0C/6T9OvKAsFP/wCxX3U9egfe+NDnwesSi4f1U7Dn2/pTFgfiFyMki+aFKVUM9jHJcEuphih9gGCMOu+6tTJPZlJWEEKLT9RZ12I/jaq+o0Qx5A+YOKQpk9Eb0iSWCDBLTzK244d/BXbNSnw0wNOKdP0ibJLuAGoTHQI6NBEf0h6kbavFpXfgI9mEp3Gvee2WXcKfNV7dX4WB2vh74jJrqp3wOK0yu5VEY51dNL6pJ+481px+9sq+zcYD+Yq7akdJCyZOtAbCVr4+Ok7fuPZYSltqYALuAOhbtK2FHMgdFdFnYSWPRc521+3rGf9b57FrBv2B8Vc1X913pRnLNJ1dWP8DfUP1mNYSDApDXiGgsdcbb+oMzFmdHrWo35iS2vU6K9b9W9IHpivtEkhjlttuXHZZSQzxKBCH4KBCPrIEnX0A5/x2onrFxIuJEfRT5x/Y9X4Lrm/taNrlr8hAym7VZB/k1D2C4G3Wq+m/YWs40hVT6fslFoHKtLdm873UgEuWRjOqd3emNaZtL7f6VmhWZnzHNmXTNCh2yI4M2POZBXZAkZILmExssR7cQVzgQ1UkC7SZtwRvoiAV7QddoVRqehL9jQxrJ2WPrule3X3OZLkPKMYMW0icFfz9bGFB0/PVD4D2LwPkMePmOyhmgcKYt1GaLEipRtBFElPJ60bkwi5xphLsQs5Cm4RBRTzlsYCHdvJ9y+LZx6iT0hyQQkLinco50WZpKvQScX5P37a5/4D3Zw/DE5S+wPzfnvkhzxruSneKcislWcciXWJYS1sALPqE8O5JBHYFAWOWzP2mk7PulKWoOGfV0e8J1n4wsphq4W5m7+E9WWV4eLUT1ah7TcqFXQiWxdSmnCvOSLCngopyRD2RrSNRK9hY50Nz7prrHelIPFpRXXKFggc1noteB1PGyRuCGXn1DpAvh1EzJ8ZwGV40F3dfXanNzbe6Vmwd5Em/o+fYffbti2kF+6QgGA7hdO4pDFD8Y35lh0rQrwEpSw4Tyf1g/c4FURfYKhh+iuYWkDaE/TXNilXBgcpy/wCu4IMZD+H67JuFris8bppoXnCC7OMIbEOTyn0RI2Dc4lVo+wnicBKFOhOWP/d6VmICim1oPzlhr9ru8f5YQvLX65pv8FoxfxBmkmKqIDtFsqn8dGD9Cn6wPXDJyczLCjRhQ5M2HT5cYf4XH4/RkiLRWSVRrtFtOOHtcrfoz37AAlSDy3SoETHh4YCmPchoewgPyHW99vaKe9YRifsT3R61sasxOVuX5ayfhFbEizWqhgf+hJZcDB/80fidVqAS8yzbJhlnNiJOrjK6MDE1hPlg+FhwFD8zAoW9MKyPuv8oR5szJJMJ/K0X0ndCevWReed95dZ1gOySBHKbvfPVT2/7TVZ4E+sQ6jzs3oGtGMbQCi7PBHQmAI4AexMjLEiiAmOtkgYmmRcmdQXjC+TyhT5HgwAi35qLk3WP+Qr0VKQKIdYV7JwCGnJrWvOjOrgbwdK+T1GPXhw7fis44EbP6xoF9bt/vpZfmPO3NNPX19Z2jnm8vywZOk3UCdzLK2GpAfbqpvWy2OWbfpXZMnYqwTh1no1rIXpod9RY1nPOiUw2ZmJHwpg6GviFrtMX7JKaZm2ZMtgqwdm65/LKD2VKBOVtzCsT2TeEfVwhRN2WDk8E4atKOfXdy3+lj2lhMe7IpkV7MPySmmQBPN+rKJwkvL5pTsoPN0vuLQRyu7wz1UdvzWDHZcO8oTSmmEvqWMggT5vh7IwAdTI152evSwlIUQuMtEO9DV5j9YPPy96MYt+yrgiQ7PIhiPwHLTTgo5HvEsTudS4cDrDgttO2Bhw0iqU9DgIgLSFbagwRBV9Q2eFDNVhbaR5Bolov+Nt6VPSsLbBpJCrsUG6ry3dK7uZg1YSky0VeK7x+vvIhZvlBTHY6hoH4y6aPFy4OzG2VxnJI4ShY95QKmELI82zNLZO/nYRdwqncv659VunQ28l3qVxfwHTEYwI9aMck/26KbgBAZ/+k0DUhRFpEcwBphxg0ItzfCAwrv1PtqXTphXBZP3zFfM7sz3T7kfYLyKUbRbzXNe1sMw6ZHH3OYSyjXUNhPe7NWvgL25jtS5msnN9uUWYFRln3SAMx/zE6iPoXfB52nuYKGRd1PD3C86t2Jr5JSUwlzRw7ekzQQhjdv5QNJBSId3B0NQPC0wXso7LDyuMTdFHljkS7WAbjbyMMop6MCow4KUV6SeX9awzswgiog6h7CI/3uv4rVNGBTy5rsRke9UxAH+fGmU/zDIIhJrt9KxrBdGVcYUSGIsBJ24yxOyHAXZLMmFU/HXCfmOB5FmMkKr8+AbjgLRz6Nk7nqdlWNh6iTaDUU/BYIOSnSgrrkXgBcwOEhGkvTz+n3AEx4FA0vxiu4jtL8L5FMFow+Y64tnNWdaHqIMsUwLvtV0NdoWAJ9eVUOfM2gYh/Aaps0+WQYz2rMMjJjiVtJDUBhYDcIRQK7JW5GgTCnfoa5Lal3kvk5U5qh0sNOFvKOZ6kc36OAkV9/uMp4MTjELUBQMUfWNb5T/5E2XEFYwsKRaXaCvuCt0g9GLoG2YTcWWj3rkM70TbdRxPOhwBzBiXTISLqP5yPN+SJ7v0zt3u0whl94k5qOm6CbaeWda5r05/bgNSXz+GWD4+oKR+IlFlZ8J6KAcRpCJy4ZaCqAiQTmT6xSJIywii2kWa9jxRC6DP8uudQLR+N5i0GZWnwijzjw4YFWAXW+iwRQFJTBZ3UXjA6S22kmh//lLWj3LziaovniNsDhgeGHmcv6JxgdUHc4cEKuM9INov+jo6ufx1UgsjohCh7KSwOanyWe58olCEVQlweF/Zkkt0Ju3Rookirj0syCl/PcmFAgKHVBbXruw7mAeE6Ypk66McrNLD54D1YaqQpq2gxTukFb+lfbAfMNw8SmrUdfVgPL47mE3aZKwYH5gTDlEAn6tDWx3+8YFZA/CNDxS2zn77sTR4KqzspE0ieJHUY92w3hKckxruT5UCNqoQMZxP1wD09EVjOPOi4It6vviSVU/v9Kz7CiMGSfcdEDsWCnAGaSUpNAtsgVA2r1SBceJLj7bSRGMI4gcMNGq+0+qAIHH42/Jn1PE/x29IY1ltmmB68fEv2dOkQUg8aQ1M3XbOsD3dmslc5hpkQvAUgAJ/r+XMzdPomjdEMLQgbsu+H52w949aD7LP688Wbf9GFtbQcprJ/i9IXBXfr4ULQShwMQ87E9b7yiaQqPZdUwFfRIEkg0tsu0D4Ue3JPsdiWng0cxkmgu/J1guWw2IPm+MkhfO0diamR1UIa088yzp2jBeSDSQc0RauCE2ThvmhHeidRKjnMB0apGd8fKB4RznALLa408Yt+WErow7czWKWhNQrYjon+HFZw+9tZDH7eylgwwo1QH+VKb11Z8I6pwyikG0TuimxADDp2GJEnRpBEsFWUrbtuHLitC/K7imurniHU64wQo2CX9TzXzH+sDb8z7Iqw2FzBmkvaK+FxBVp0nyB4YDhCbcgwAZ9ldBDoR+0B90dPip4B6YQUPsQAAAgAElEQVSV52Pgx1HRvwthWAZ7t3+O6vidWY81b2TsFXUA7O9TM+x9wxhp0rNOb+yuogkibXs4LfSnd4crDEK8BNsR0TOTIicE64XdC3ch4DCrmUMYs8E2N6y/qGeQcvzzGPwNKSbo5BzVlngOBgM3KLHl9rcJ3Zusqw227Yg9D2lUtAGzFMSShxQJaQu6KzApMEWYV8D8RMDR1OvoRLa14l9LnqtO7enAVvphkv6tUXt/MaE1XTfvMdz9O2mAecHuaudfmkJUcN71OwJDrwUpCPoSASNC1QC/0IuIZ3mu4rQSEkxapoB+ofsJzneaLMyQxMAAgm2Ie5zcQd8mO0bgClswP4MRbUEyjfNTFH2AmUGa2sfxbLJEfXEFvJgb/GNLjP6EpCXaaPx1wt4l7VoJK68Z7OsCL3VcNepcGQZX4jONss/VAfCOPrOFnehMjC1vEnHBmh2mCzvG5emZjviup7eCvkVsH7NkmQmOFT6CwigTxqyin2C5qHtxEOCH1++uE1VPPIcTtb+u/zfgkmVWYJzQ/wnc+NvBNg4SJPRPot/gFXjAFg7MFszbX1/8BoMC04OUC7stzFWwnbbcH3fl2KsSF7VEAexqBH5quq5HKHYJUKcXIZRdUxPAHnGZ7JjpEMnd8QiijSI8LCx/VAKBV7GVEdtCbCFltzZxC8mvhwKTgBQXV97/DgtdwCeussaQOO2MYw4yOiaMH0xPMF0BA65gLjgFDTIq3GMLDinqgFPsaVKtvz62efs4nokG7LPS6OX8OIr67Zeco8qU9PyprNFHg6tql8PYCwhlW/14q/q3ZjpvDcIVe88tX9dXDai/v6wpvJrIsASRYrEFFyKYFCQBwu2H8ijMRT+4+iMeuEzrfDmmFWbaIGMqAabhT73ln0v8TjoNRH34MIZtJ7FNcxnMasvVJ0FqRFmMEe+COBV9Q98FQ1WUTeOB4Mej7O+jfuxtp+PKBxltXNmU766NXdApX+qU/UrgsKbrQalAHjLGX1cToOLr/kQmsXDOnDlNZlggQui1ZpgOcP2JwHkRIWewOMSpIdrFopax+g5TustIaHFbwbCwx/4FCT0UpCcxfv8VEhtMF7C99T8P/kaZ/Y63XfspuMnEWaf7+w7+RoSKNGYRon5cgENsbxGdtixTiGU96/OpFnhCYULZqiB+q7zXTTvdeBqgcL84AaeRr5vOsEDgYCY4lYraPkHKKEoi+ATPpAyCg84G2yaxyMKuYQwrSbHtT70VJGwcJkQxAJy+gckE6yTdA2+Q5nAaCelPNnxz2HjFM8wJfA6zRIDFVjDMWRvjhmQJPVqZ28Xu5Nj7IxdEhhc6dT6QNAdlvk+teCeUrSwToKS2NcoOz4Bnt0obGJZYJND5REkW2M5AnyTK5rn6mRZw77rZRCis/TGwxDzFnTZigYdt41AXUlHYaRuYA2CKYtiiX/8VdlAwRwDzLFpSQYysNHGugnOBfIrTvBW4RTwOB8CsSrbdWr90MrfT8LTlxmNkpf6Q+Ocr5+/H58zpz50GVNwNwrnk7DDXYOeP2K+Pgy/uXZsYFggfX2EsREg/QZyD4ItiWvjS+9vfd9zuR8UkD57MRdl0gfEEXXD8fcB3MLi4IVVB6vKXi/qN8UNyySL1BPsN3oPpwQAVkhrgjJICg/WC95Dw/AEcYcsldHnQRwJHwTpF3o/27G/HrYes73TKfhs1L1U8hx2oNOyEsruqACqij0dScdfAqLqT1luKJIiq2oIkAgfgIE4gaU37eudw/whKWjBmDXMQ9oeVATxR8d7j/APfd8zM/ILYcsEOKzjG4D0WvIy+Le3cgClBWgQjgVQIfOfBLXSN0J1BKoXOTNjAoe0iTFRkxtftjWmBJVDIrU7ZF4PzUuX90Ig9X2og80ZWPstLBZ9MWCUN4EdSgEYUcjPj9KzHZSa7cWW4X1vw1Av3aZ2Po8YWZFpoO6jXwuLzb/MgRQXbgyI5jvn4TSEgZSRZv4OWFuaMChqEEff4EAAWbM0EXiHh5T3YgOkIpGIwYegjBS7AbMuQCMPG1ulZvynKnCG4nGrXYxu2GYQp9F4bsd9YEiNK/LK6/ZrOCaGApXjYmbQujJjgGQuvieWgcPdbyIv5SHKklh2L3+RBtA3pwK8bwiIX77Awg9vHMLsyUR6MQSiZ0ea+Eop1hFQuYqG7UtR3PZOHoBsPGG9eRoX23VhfJut/8LPTbb5wKpt1axmcO5l2ivAfjFpW2hFj/0/MZy1X0/5CFGzTnhOT7VELgDzQG3KlTQMow01n0vpIkADKuseCLENPgQWPrUtwLiApQLrJMx7Ai9hRwbahM4LEgMUCXYz/vT/2POr7/ST95fAbzA/wATdBK/9gWdyDkeQxmEXdQ8+x3RNHIemIfmAsirGGbX3T4hAKfxEt1a9zxMdFxvRDtr8l35cyrfgDwihlWB5SVXg6+3UCjzVc5XZaxLDNGoCbWhzzTefNUhiNKdRd3X12p2etlSWQvOVg+JmXiUTBAJuioB8dlOJRivCodsKeR9lOYTsY7BO6GsFUwkwf/DQDmMH0oNj3Pw/7vTfLeIo24emjoPAOO22Efgrb6CJO6MCowswvgCNsDWWkoTD8B5/B8h4mIjIwF23KELaciMGuDpuzip7dFgbTjGeEslMrAiiMmLcuPLj7zBlAZXjQ6dknBwmirHtIQ5AksFDL6AOM4oM87K9/brAowTzy9Ok3LvW3HfYbzsNYnGCWYe/dZ6aXlisueqmoC8nKvw2VGQdwjagNYVtmbAFx4oqoFTJtxZXBBwj9BMPYAHb0gy1zWtjj+gNTDOoSo8qP9uwLMiyJ1FWIyc4Sc1XDdROiRyQCTUznezUAJxbAHYkAShZY1ht/WadnbYya9KKfg8CxiBCapIgFEwYftmX+rYiYJ/SZx9A0TKcl2g5e0VfQRMJfBjjw67/87/y/ISWmsUYHc0C/QZMLtIlQxa5Ul8OEAO0j/A8U6K4nQoiZCRTqkNqKkqgwx5CqoA+UcX/iNHHfMVfbL5JcBrmK1Z5kdemKlyYOgFB2vZ+wKv4tt29NHIVXYNmEdVLYwi/rGZgWdBxgKtDjlMG44EfnP8Gbmh/T85vLekwfptOaansqe5F3chy2BRNlkUgi7r0ol2KButukoAId7UCqTRMJFVstzAlij0FKhAEtYs9Digr7EKAP6PXAULLiNYrWwPSgSsBWMwWdbO4UFEZGZglphrOnmK86rtowe3sinISyB+oADn3C9iMRwBQF3Mw5EbHdi/bUF4SJdqcSMOAk6QTbU8jm+PqLtsUVR/VgDFHzhIWM07C0hwFhSv6oPvI8x8GBGEvcFQs5TGmPj0LQ+h4MAHhBRAgwAjAZfDQQnQFSH5TvMjDjhBMSGyStopkUxgr6gASKMUBiTjFHW4uI255i+cwZouP/IYOz0sqYbK9YeHmUhvpCS2QMKRM3KExy2KLAYsBXNgXBSC0y0RcWjV/SwJcaW5oiju7RB4wVw6QOP/HgJA86HWlr+Ql+ZB+QqPxtFvFb5sQO+pwwh2dIRZgz6PWgoIaRK9yboiSkJHjBOPY/0XaZB2J1ITSymMMir5gDHHJAOsYHTXpOpgyF7WPj6LyMd/OPcp6XhL8y3+vUPix2XAsM6yVlApDctn1ALIAZXsKQdNnk2NlhxAc3EUhAYC5FKlBFX9Ar4WsdHDeYF6QZLErzYu/4X9SJu2Ix4asPPQq2cEkMa6pf07PqxhcdUkhcH8gUI6Mwn2o7JXPDyWFc/5iHYE5D9AVzBUg9cKOBLikrgwrCjbkAU8fWsuiPFz5OCG2zt+Ntk0FrWaS2ZRPWqaDjDOSfuwqh7Ikgzqq616ndjR3A0LD9X1UBE9aPRosJ8xocZPfm7l+P9qzVYQsFWwn4q2HxYzGk//IlMICed/we5nbjxwGOyCEpYAsDxbb4R0ZnWGa7zClEEexvQ/Y32kLIF2xNcMoYXKjAiYxJgmx//nJx9krAPZyc/eXF71C9XUpmKdqKumLbiO0q6AFb6qWXStlDufiDxIttKj4KMCgVHxNcIRXifRj9JT1bNmGtrItZYR0Ryn4fha+ynyeGmdENRysbiNj2TfbaILMp6p7rs34VRSCQhlx9CaQRxwuql5XIovrA1xW6FXzVY/FQ8EJM6gt6GzBGuO0ISQPmA1GRJJLai3oPXVIUbiBpxhmjRrUZfA7cQpGNk098gGAnBYkU8ajATIB/SHBgTNgOJjJC04vHBcX8Xpan34LUDJMM1AfMfmkPv/EOTMpNOpJdd7mlMzG2uCj6z9oOoeynQRxXeB+fNatu/6GF5gkvzIpYmXpH/5y9oDNpXR+1aPAcJ0j+bZy7fTvFdi2poXvJsnXE1gDH7tBhgJj9uq0KJ1+aScJ0AIsaMGNRFgVjWMwo4Nw4f3oi1DT9AZeQaKDPEoatcfMb9g7MGVtlSH/QawJO6MawhQMtvP8z3mkhHLrBoCA1gfliawrmiPAy2PoZF2ajjxCYHuj2xnaVoemyy+iUnZdmPgoue1ns+IhpLy64wzTEvhXuALEAFvDyyB+PP3d0wroshEimff0hDcGoUoj2U3gxmXtCB1sdEDRiiKOc+Aeh43QKWyosduFwO1U/hfSExYitouwJV5Y+kuqAYfsliKTyce/D0mVh65UFR6gDaaksD4Mk+ijr/eiEfVF3svviAki9kCYIZafFzWmZ73TKfh47CEKdY8sEIKHtx2KBK/Bld3X3aZ2edYYU0U14UheU5EVsWaJwAKaAbQeY3ZRuyXdiBT3T0Zd7SncEnMP2BlIQ9Fthp2lR/dT1HGYYQXzDFisLM8THoqjT1iBMNd6vG+0Vf+iUd9lo1GZ10Qyh7OZY+HWDOTUC98dY4Ep4OTphf7TTsx5OQ6SQEhDrCF93SFjQ84RZXwfxCGkJWwqU3xc6llM9poNtF/RnUHSngcNfFnWhAwKjg7I+6AAchKWOe5w8+mGGriyLZOUG28uuF5oGgx+eWn9PWt859krr5SWQeO4mNZMdVQe98D7vjB1AzX6EN8UCV9LLo3rO87jf4aY8RCtsg+BuAmW9+IdUlEXvlQcWN806wv6elG27VQaBQjckxgQbuKBztUyfsr52op+mX3FyPTrB3lESaRfSLDGcT8vMTUllHogdhEbtL5XUsYwuq9BURbEDDXl53JqxV3N7rS1NJ/Q08MGyOsoHr8q5FvZfYOBZTklx2pdm3A0uuwlhjbtrrHeFkGHjHhFqH1glnQT6WhuLEJ06ZwcqyDCagsrYvVjgKnrZ7Tmv5D6IjzSY6FMvXjCuNE7ORdIBtn6QQCFp4mQtbdtJacJaMU8T1q2dnn3sMRP2P1VEyoV0o5nOfmnnq8Dy62MHQSg7p8DO0hGmwVbHAlfxy+7q7jMQc6jTs75RZWytshcfjBsRirjKeYYpBxgWTADS9uvG4WpvCvmbkBSlO2H9d53Gn3mWjm7Ye6edswLLb46FvWabi8tjgavxJSI7dibt3Tq9sRM6PesXnZ7V6m0jlPxlnngGCRanmThkCD6XuW+R3gp5BHqdSfvEzoT1gapCwJS9LOqOQBw7PkLt78gQUUllCg0tEzvQnC+713WfObpm+Zs6PWvP0UlruDNpr+r0xn7a6VnrOxPWrQiw1ulZlzT5f/h8+xJC2fqS5nIac5phyyZpizZ/CXt49Kf145HP5w2dnrVttGf90JO68fEaO6LbG1sANUJbJaikpdBwhqW2hEkTGPce9l3nnScRJTGukQrfEZMdUwXDytHHSIXoiO0K2WlWlRhDPbbzGl8Sk+2VY/6mfbgytLM1dui16rCovSYWOPWycAwsMk78G0LZfRkIKS8hytTfgPAmhQ9aNZgKA5ph71sjfSQp3Z0z6wIu0Qw/FZpVYVkMEJN9pq45T+j3B7JjUOXKwwCyWCXMk8zHJ2uZdbEjQziHGoG7MRY49bIUDOim9XJCWX1BG6P1WcOlDFg1mgoDhLJDa+MJJnsoFlhC2cragKPs9ljg1MvSMECovabGeY/4+lo7lTZg1bA0BrYH8BupjTYMdncsoMRgndqAS+KmsZCrl3kwQCgbrm3ewyWsbfNGVj4rz5hU3WIwoJtsrDbaMJ3fxY5CM22jNuAoizcSi4VcvcyDgfkj9utrnPcwCev+PONRdYvDQJ3+xRpl18WORDfYx+ok3F2PHH9uLIDqZSkY4GnJH65z7qf1bbAbShmoajQ1Buq0HNAo+0kswMSwFk4jnHBxPeyLWMizIcP511gA1cvSMKBR9sM65356383wKy0N2S1qmFD2o+lzU51bl26w78aiilBrp7qAQ7+aOf6/sQCql6VhoOZYaNM/eA3zKy0N6S1omFB2Y4084YxYFM0bGXtFjcD14WgZC6B6WRoGNGp/tM659/etbPJKm+bUDROTPeSfmyp/4yMaC/DO3e4zqgQopK/GuGLEImoAX5IR570h8zFd8qlORXDrAKK4dUPCSW3NNJFsi0coe7QuIHXKTmndrA4IwNqI/ca65j2k36fmzKknceiATGchw5hnsn8PmZvKPmKIxZU4EELt39QI5EWJAKoCpWCALBl7VY3zPnMRLF3x0lIGqhqVxkDdeUq1EWfnRGDrPBVIzJKRCL0qkBUD2rDzL01iWLox/r6sY1H1isFAzfHc+1JWAzplX66RcDcuWtSe8CzFkEUzWqlb/J9Bc6ZzQjMwM3uhqNNolFC2jSxe9fRE7GsGO24G8VSnbO3rlP1bIpCqQOEYmE+t/6lz3kP6js9JVzgGVINBDBCDXREyLzO37+Xwh3uC8ITe64b9wRqB7OvU+UAoYOphqRgg1NmnznkP61sftv+z1EGrxmMxUG+sNEnj4SHD+u8w4qnsmck+E4tF9bIUDOjU7lY2x5JfZJ06XyllsKrRRAwsMKyX1EkP0nM/ZHSfXyeghLILErGpChSOAULZRTXPe9hWY+PuR9gvKnywqsFEDODQo056gGoqEUhRoE7rVkJZfHpqAaS6FoYBHHTUPOdhzIo/s63CBqoaksYAofZ4nQwrldeLTtlEncBCHJXGrCqYGwPEYO+uc74T+l43NNyu5KO5J6QBDRCTXZUwLzEfmfwO0rox/gZpNBDT/kKdwGrU3l8aWFUwNwYIrS+WvySdnZN7kKoBaQxwl5xNknNTBuPatKjb/WtpgGuN4wyFrMm+Kg2sKpgLA2Qx+3tC2ZM1EqccwRvWwlwDVZWlMaBRe5ea6SFdfgdtmL29ZoDvUb5k0vSVq2BBcfw36pT9qmSaeYAod51ccy1bue4TY81gX5eF1S238ODuMwllW0omwNgvK8L2pgJaFU6NAe2Isf9HKNuQd541yj5LqN3L245E/WtBm6kHqiqkwkDdOmzkGEgFMArDr0+CgGKZTq76hvPp1ECrCikw0J9bkCXzI0h4Sii7K9d8S9pmEWp/ByGdUwxUFU2BAZ5cN/dHLA8tSDk9B8ekU+fsPJ3mrZsYHjUIsLpPhQFC7eV55wj1NcoOgc9XtbkN7e+Qxd3npBqwKiyFgSHD2bUIusjRxtZMuR10ah+Wo9MiJK+1qU4KpKZDFQIGCvTC/xF0jbVk3TGcW/QR9jY1o8ViwNve5zdLyME7bso0oqFh+79ydFoEw+rjtCIT8KpSJAZciQie8NJbsEjivX+3pStejI40w963gPay0MwWYjon7L50xd9GDli9SIUBQtnva5pLd/41an8pFcCisGv9TNnaOoEnlK0S8KhrXgz05/LTnyKY1RZsHQREuukcXzOd3AtTHCWRixnJdm1CiCHNYB/JBr23dbikZkL8ozJvyDx9UxUXmie8kFB2cYFzOe0UpwGnSp50ZrC7CXVGFxw+/rKpwZf4Ax91fcnx/zhEx//DjYlvsj0Q1hcJPbDwEAFjaMSeDzMhJHhpOkMlJjumQBrJIjH3EUgy85Q1YQC6Yb0l8wBUxTk8ucQ9hRFiwKiXK9zXF9Z+/q0qFgpMci5GqCKceuUlg10OYy8YMtg7uUH1Kh6V9w5C2eaU495CDOcWnHRqJjsKMcjA9PLCV1R9ZCtKOZ5MTCmyD4PdnWssyBMY2XgxhJU8YIPZuQYxSysPGeOv0yk7z43cWNxcXRyMAokj6AJopIhtahQtPYUMwkgZBZcvSDvwVQ1KOzt3u09z49qbNoEdkE7ZFwm11xDKHihgfFGw4fmjYGCE2gdkOh0riL7nUeufqz3pnakb3R688xu5hvPmg0//K0LZ4yVPWNxkIgLpHwZpWwgFMRbMfMN5JaKrQgSeN7LyHxZ2izGIRDwzzqi2FjpvJvsmFnWQoAhlJxXRD5gKoewHBTPYWNriRrPIEgXXpDz4gqR1M6H2+fyUbUQz2McRcYCYbA/3nzr76KbzCUhWxHBORllu6+iX0ta70hdletW2ZpphLyliHvO0oRvsY0H6Sn2vUfvCPEAUUbeNGaFxggaChUKap4G/VcKqHAZ7f9Iou46YzvcIZafp1DlaN9mH51P7PZAAkDsyOImIZsC3K9cWge9gG4jzH7Z1waIirt5o5tcy2IbcvT0ORg49FKHs+oqZVxJzC76/jFA24m7rcmw7vVyg1k7EsE3OsJ/guLoJOrCqPtY1Z3h2cVtIlBbdcD4pR2xFEe3MdrBggou0afdYvHx7dGrgaBh+dr8llF1GqPM1nHwi1pB7YmcwWzecE4nJzuJKcSzSJIl2G49ddRP/QpeZR3Ib4IxaNJppDxVOG27yCS8nIRyzoYfiyRCAm1rdxQJjXYstjFawNIStqotXjyYeJwa7er7pvLlMekf7gbEFmXP59wa7oZAx4sSl9sFQ9nhTbW12P8J+ETFYh7umQBeDhbUK+pL5wyteE7aNip+Y/lzdtF6uGc6esDEiJvtlyZLGjRGS35Owr4qDtcQopaeGMUnQADGceZzZI0FCXheSPxLKLvfC69jj/JBpGDosbN00ajPYBRHDuYSYzu+ilOzuB8l0PlT0Nm7nT3WfzQWGmwi1Laho4uYj6ztI8nWv8cS09GkGxxdN+Vw2Rjmsmc7BaWAuu6y7dfHihkH/cTmh7CAccZfRL5gixk8ow7Yy7zwAXnc7o5v2bhEnQzcnOZ8Tk722TEYKpXcSA0DcJi+Uryu5PiaHG+drSBAK/8e0cyW2bzplVDec72/fEortm5iTa8uQhtytt8n2QpxzqAXSwh1Xnse+qtveso+tdRycqd4Rg9lyxJB7MYmJn3k12NWpgC6psOscCsmHsnW6aX8ejKuMrqCIRwYjLFxXp0VZFtMBbKFuJQb7NqHOkdAFitMxd6tlsodmzqtzJog4aUyEsnNm1i14/k12VpjuLAw2zAuUtoSyaxLg+n1RHxacmAKPusl+7GPemzTD+VQYjPmfwfiXLSgKfsDj2YsVPG/pP6oPyM6zFA4bEB/LZWDaiP1GKYBLKsQDm10LpTBsc4rtpj9XM523QvSXVDhDN/YHQtmkdyzOVmEbAwU9dGlgpGFbCFgzc+kg+FG4g5g2kRkToc6bcuuTPGX9nxOYSx96v7TEDNs9xFQilIVHzTScW6SyCssgg5fB9p9vrZ7iYzoHW7oUTUgXTZI8pRvyorJMJs9B6QzttDQwJ5Z1RVLK7qx/YM6ZicCWUABbAX5cvTLLViIOJGyteNvQpwSZCKKvPsRPGVdCgoCUhBPItESL2FfulmKmseOTxGSfkY0zxU1dZE4jsU2eOR7v2Rboo9CWRp1FxGA3xJRFG+em1wXOmQPbIo2yz4Xqukz2EE5e4+YmyztIPzplp/A+ryn+w5YFqvA6ZJi9IwHvUfNX6HN8qMMhzPGU+6EVCmgGZG0o5OgzBR6gAMcpFb6gKarFFgWz0SjbfXvyh9UhOLjfs6NyjoQkk5YxTe8YCnx7N24iEbQzWo8trXBgnl4v+g7K0RCYg3RxG/REceWw5RW9QILSTNsglAnpJNge7r8VJjGKNuKu3sGRq+cK4mAzzAnCFPxx7cm8A7PEKSKh7Bd1GoTGwcpt38JwXd0z0/ldHIyZ3/HTwuCEVzcw8bU27NMzDyJlRUKtnSDVpN2SRHUDKQFbNkLZr32LGbqpizTKDofCNh+D8nqG35pusrGIoHr34DQM/oVRcEY9hzGkT1cTNfePcoU8TtuiymwRujR/X7DO524vEfXs87MyLfTD2780BK4LsuDDD3vUb1fnRJ2zs0iIUW0W8bwRXiygjzITJxcUoTKCGCOJO1h+U9EnJWEEADEVBB72LsszYlgL+dG4Nx6T/RLK2aK2DNi2QknP5yjo6rLRZYqGs2fWBQ8rbQlr8Cfgcwf88G1scO7E/fVxOOR9RZ1cXYyxxtVPegcHZULtBwOM6wEo0JPqZnmPbSJsq7LULasON1IV81HbFaqKssY4B17ogUmuZaCZY+ZIYgbbpKIiWmJL6Vdy48QP28GitiE4iOA6k0cCcwOF9jmwB9tjuPt3kkMPLcatsINMMDj3a5HfEA3w6BDhCm9X6nKODe3I9xCLHLqrwJhEn5N5Gf3urv2cMyMaiavnKyGaaRGSsw89uX42IdYdn9drcg0kqTL24qEKzGjRXxBY0deNaXUvSWOb/t6ztJ7+LP2da/xJmbAPgsRwUFGMCnYrQR0EMtdgK+gpMfOPAdKY5wScKP3+2X+Cq5v2ERGMBnSwMU1iVG7pHiZtXZPfmLg/l1C2IgTWWxEyJv2Mt6MG9IEhYy56jSa2B71l6RjjR+iJwJSNEJyslT7YjB24IVdcB1c3suc2HM0XxWBdkwJYXrsfCftBT7FrH1h0CixuygKr/aS5vtFviwZ9X8A1KVj/1LRohQlCRCbia4o4hOFGuUGJcD0cgovSX6Ydc1nleaakJrg4bSlqTcTiCrY6EkQcJNIy7tcXvUhjBy75kiuc4eeHSBM/Lyru+JDRfT58Kre7jTyGLTGO5ItX5Pbncn/ICySU666NVNDIlCvmo+b73qxmIRgrFLQh9l8PYNubd8sFiXW7A/n9M2nb+etC+MsAABkWSURBVJlfepQkg8YW45E8ouanuuem871KkATCII2wycKXvx67rChE86N8bF/+CAvivItI9OO6nxjsaiSPKMMY0Q1zY7DjvOByiRIViPoRKPgFfOIKXRmhLMoYdBuib4qyWa8uQw2NEGH/hpj2YuimsrbNjT/vm8m02BY3DPTiVU/P2nYT6nmGyYXE88/P2KrM5E2oc2zIpOYfRPL2I9jHlqZ8/RCAjVD2sBtXqCDC9j4OsMdihwYD5+VZAO6hguubxk6ZdnIphX/7/ChR3nMijmR4hcXnhy4VaeAiaHCrp9uzD8hymsgzAAUPMATd3dzmCLg8IKEYS53XuyrdauMr1hDlO5B+eZ7FW0RdN1gbZV8u0sfLZVYm2yuvfZDr7zbC3gY7L+i7uDtPemI12S/9iSeCeIv1STPZVUUyXK9vNxEsomTEnV7e5+qhUsarcmOPRbn14LnBOsVvx4MYLfZeM9n7Ixh8elqQ+rBFfrhge3VMsaOTaE0z2f81BQHYikmAXEoRSHiFeppzKGEJnmVLCQaH00nX3QeMIj4EC5Svf8LpIqH2byLmE9EdRuK+iPqw/Z8x/TwcJZEVMSFcYe5nWmt5klh/5vLb0waB1LBF3rEwH/b99ha4wa5AvK4ixlB2G67+r+b0XT78bS7ywy6NO/4Vqp477yCiHX0b7Ia2ffGkER1TEP5/8AfjZgTnch2Uf/ECR7hHwoSL4VbjOkeLuOaLzvtLWNdzR+FgNIjN2OLBxSQGBGFzFRn2JkzXFddelndcutsRathkZ8F8xHVWB2PxaAYJIE4OHhJE9Qd68oXeuc31eaTsT76FB9zeV4ReLgqGop4XmDh3x5oLW4cyzwz27aLGlbqdJsTJEgSEGEWpB9CyCjjC50lLEdX0F4GAcmBMd3EL5hVgTNC3hCvp+3MhlfKwKEEi3EJM9k0ZC2QsfkKdn4k5CLleUBWKOV6mmJZnnOv1zv027+bw3SQbqYGf+MJLANuYvWBMTLwYaP6PwjZE2IiTQKvCQVg/oBkv0UXMFk2G0RRUBuYyYXBW8oyYzodCiDS4AKq6X+e3B6oEASV3smDJ2KshPfEoC34p5jGuQF2FTM7Y7sg62MIa3Sc5+OcG0TtPk8WhG3/KiwPlb8P/ez2s/EtG0bTmXdekHckk7vQr3WFOwZ2R+3DLQbKOaZUjbngkDYzrYlGEm37c5qd915uhBAt50WeWq6sH3SFh+uemlt8ada7MMo7C6sASmm83akGAn2DwGwsxq69cYUjJ2ZCnD7KXT0mvXpC9H8Ei292WuBEn01uxe87rSCc140sLHdVJaQww3SCGlAGmyHmHu1BOVGSqzt3HPAnIjcQwvRkeFQLv18K5ffrbmXfczQimKhv80ip+uyGs/eF6DHZDGjzO7K3YJzq1D4ubo6rf+aXeYkeaorWmIQXB9VKA34ii3lG6G7jv9zAMhXEfHIAhYeV15fFOG+3FiJAaINBHEbM8reLYNSmgbCLQ1gzG5cFeD3o16izj8P057HQSLlJct/cwAhomQckNVvthAQ6xxQmcvN5RhXN+EsxIHyeR0GTGvCXNa473v8hyiJQ0ztTvIXYXm+op+qstiayNbfADc80N3FAzrg5oLdx3EIokbIGlnhReAdu7kJhb9yLJgqzy2d+3uwiSg+1B3/NLf72qf2NhCP1clNKfmGypS0+Gc0uScziXsjZ4GYRmjoYbzMI7QDCAe2QY4cyWinrimnyIwwYBU61XbKOLGl3udng4kFoR4iMWwHFNI7h5CGahnOWxx6Egh1X1SH4n3pkdccdrf5KEp9JEFg226FpJh8aAdxfptFRjiPIZrF/1PQ+8iICAU7qnIAxerHuoEpyvBN8F73m4nG8Fn++4x6kk+6yPDu8Hg9/xvrpfCe5RNaxTu1fd6CV64rosv1K4BqRMfd28vk22VAL0yoqAUXH9CpS1tyN9E3RBxQOACARuIlIRbHErFiR0WFn7ck/ZZm4pXTwjXA5OaH0LtY9j9Kx9FVmPR8l9MgrPUMRzN7NtSfoV6L5klMYcFwL3N8kehhQ1bp5yPspSv551KZkroCgcSLXTsBNDTMzGprhRuLGzkV/QYDfg+L0smzFsz/3OrTi5yrc9RmIMdlRM4L473eB0XiTSqcUAq2opoim5kGunRtk9CBMd1ZVujr/LG5/9YFyMLdirwc4tqh3/c2RsBv25TNxwLqlK2sdHsUHuN/yDVvPJoH9i/L8xKYHQv1MEPO3ru2OfX8X724oKxOcfq+xv7yTJ/gKh7DboUsokXC4tuBlQ3MSeI857ZeEMK8dPAqMC6GHunhTMMPixqtPzIDgWz6g2/iDGy8btSugnBeuLe+gWkTJN3CddEXkVByigfRwCJJUv4v3U4UC1ayx+HfOgjkWMr/A2XKVxk5AFWFzL2vRmAHmRA+mOUHatG62zIGfoKJh297JPI/PMJhBtWLz0qLphz13n6IT8fgjpIuoGQw5Bfybe1X3FRwNheeLgcA1CKUPWoqeAy6iyhLKfRr0Le87jpkOPtqUM9y1/n3zbLrai8UykqjW6Xbr0w9jI35jUGiWqiImyl1eHLCS7tA+DG0hex2UZmBG9k1CG+Fs3I7ifTJ24Mjwu1D2BOZwW8C2opA6G3IV+Lq6Pqt/JJDbVKNOTpKEs4Yx4xNRtrtRb0oeL54mEPV0E/dfyfItujL+h6rlO3Z+7199hbdwYBMJVJfVgUlZwnUxNtgfiS6Wsmqk4V7DeDgkiSrGcpmEwmoC7D+bvB669Fl8MsDkKnmryY/+pudYN58Q0/ZZdVnbh8Nj7d0bZviFKQxZYReZ06AOz1I+rA71bk4y3BdMsO+9CHE5Sv2tSJAeBQOhciswtGIaUKq3suY7pGkQrCIMl7bMpu6QdX+knEOOLOwEjw7TLkKJO04S+xi1nsCvS9l9meVndISzfAT8+umHwwBwl7HnSM/dDRtmN8OkLMvukuvHvXZ/Q74u5adB1fZMs/uNxOGfOHFg5T52S7FgAU1/g+hBr/6bqY+ZEZGUqAMNA+/SiUkcFQqlgnq4Xzs/+TEkImhcFLo78ffO6Lq8eLaqfsp/rlE1ESUJhlu6y8PCt9lYvcatsrfhyIfPWgDWGD5s9Hg95A99KZgiuA8E/qlISKmNq4PAs67yb1L/YrnBmAx+7VcJpGJKJq3vxPjoPx7nx+E7a3DmNMyVIgqnO9wgXQ0KUxZCM8rrccCf2O2F+kHeM3HTCHzWijrUU1uddOOjIO77K63uhR9jtvq9u2OBqeoZY8NWfHBYxCZ6OML9yHbDwQHdiDjYF9Xzu4t0hIQ/HwR80bSBuTKq4Gk1951qs/yQIXVJcsGD5sHuePX1j3lNUfvoYjF8m5rHO6zbEyQsbeyueuQaTlE07YWoMAyszRXZJs4PtbFF6OJ+DMAh8A0xSgmAT0/ken6+7knwc542MvSIwt+vauv1GDP2grklInUEcpb0HIwde09YT5XmMrpkRUHd8WOpkWGcIOFt7xfF+gJDrROj0vhviQiI7uXGW2LJtoByO+X1zsimMWSFEszgxlDELQLshGXNG0sDVlLJgVmmSvaaBm9vnrc9yqostacMCDfjX031ZU7ilwV/pZblRXki+t1psQ/wIxu+tmunsVzoSGtQBrNNdA1P+RYbNWBh4hNoHcqb2GFxcwsoEn8HR2McIYbR7d1uV78GxFXmPTEVpdZA8ciiMW4M03JB7+8AicVRrW7CKbi6i2WYExqsVQRV1zt1LcLzuEbnJvhrVtYhkAAk5qkzweWCb6fYhK50F2xrke91kYzAZkR0jt7X69dS8iflrznVS1nREdsy1l/PpQxryRZj2pdqUVxFaO4IlAPAbgBKDXR2ll/GcaJnr8Z8mrhPMLGYuKvvBuNNFCbAHrgikK9lUV2BWXlajafTapDX0VFWG0pUSAnchaaqyEASwqSlRBsqYGDAe31bwz3GplnjaLuBkMg0sPJBd2FH7xW09lU0zftmy3gch3iEbbbWAWfURdkd23K0rx21HmvR1CMKyOSpCZeuQHQBYo/aFQvpJkiZ5rj/g5tBAM4m3gUzSj4vQNGprOB118DGc/mT6HT4o3Ec0SKPNuTfY6oHbCk6fBvckKS5kSRMmA6nODwnC3eb7gHPyRUlj0U3782A0cZELotrQqXO2YIzEi4Awwu+fQtLZqHqz7XmcESqPx96sgJgz9WWPVp0VqRYagW1OE501fYvMZZpwe6gFQSV0Sig7h49vY9xCEV0jHrpMdE1R3n8NRB/diK2gTtkXef+3DsTRt3/ABf/mwQOCCVub8CGfBgMCURY89OY2x7NGh+k6piElyEQqvzftLxThRlHnTPAPBHIO9mXDoxA3rXm2kDzEcOb55wluGq7zr8Gu5s9/MPDbiIwTznGH+FnNWgdBeFrrxZBxYlAt7Ai8iRMF3Y+sHVIOdJRWFcfnHK9bZa3kEXlhyHB2zQIUdz+ZWnBCuQ9n6u0JN7ykGClMJbLA0MY6PHN1E91tpuYSdIQTyzavhxy0gWQJ9vlNZFJBmJBooVXhMnyzQii7yB2PpDsID4WyOUsaMK9bzCubCibnzxzD422JBbDSB+Ys/umm5OrwPIkCN029Pj6QJgyy1Me3K01XLgriuUcfYW+THVsTynFDUVeqkY2z7s6JwW7IA78X/dTb1vgZFvRZhLLLpz4IA7DlzoMnSCoNjR0naH7adbYYWMfOKU6O/F/kKWIO7pubcb8BOd9iB9Sglxq1d+H4/JOs3mjI6D5fM9jX8wyD+NLYB6McDBnOvxLK/Fufn4ptY54+21YXSW4bbhAaYFbss23DcWnw8v37NAQ1mXEh/Gsb9vE8Lx/wGpkNJjipXtIG5+jg8zT3vlPJfpjD9ozsLga7u23Saxp8BMtye8Rm5Q6MEwgMdgVUBcFxzOp7RClsMpOaAZvh3NL0RSb0V+liFMEMId6oMYlQCWWncnxtCztlBbMnlAWP7jcUFe45Cb663nsx4pyvzaClOGZR8zvE8A/76NSFw8b067orGGx1myYTYaCbvEXk0UI3JMWyChIBQlwHn6W5J5St4PP4SFQ9YtqLQ+fadE4YRDceHi9sh+N5zYwoFPczYdoAo+OoOZz1z2FZzVOHt2Z76E68yb5aZ8LWKMIhSC9vsqui3kc9l9V3RdX3RTK9KaoMT6JxL184jxPqHCkMiqGIzhIvKqqvup/rhr03oazJfrSh663JH+O653Sq//kj9usJ9SIFSH4FQpFdQ9070m29poZcyg/ErQcOdMpOKaWDmEaF7gxps2KKzfFbxSMcM2B2czpi/k12VRV5HePgy/uOZ+MWXgZNoVM5OEy2NO/4Z019HpXRTfNdA+ORm9CZ4jPqwQ/xc02QtnjkBMB0UNWEI/SRGo0/WYKCn5jsIY+xOmcLOHmwOiTkvR1bKfG8Pdf+XASGJJQJCTIPTdVQt4VZb+omDjLivBexxlvGsARx3a8Z7CN16mJ4pNc+8Fj1XIoMOjJ5/BAXis/xw34FvSdtsVOI4dzSJqWvm+LOYFe0lG77cF6vk26rptVC+4OhmghP0kYC0Cj7iaw7TKGImzNnDrdY3ybyCxbdflx7hHonYQjHHFcO77jx8DrMb1jYYJhAaJT9sOmLCMEQkRk6YGMmPmCtuALPbU+Bl0Rvpb/XDHtJG5mVD+aNkCLqsGNxdYGL2d+XPkmBDpDeHsbAsmOeCkkTmhTEtY6/uMlW1jBvIdT+jW/OW8GgAvDeGMwUFJhWdSuLAbHFCCC4bURxY1aHYlk8BcvBkjq7T2CwNfl7QtkvyPbgbrI1RP5DnbIvh9Vxg9m57TUrl+RuS1e8GBm4SVNT2YXrWcPWzR1Bj4SweVDPJDGAY3YQc8sZlkso2CYOGeydkkPPVWy7o+o3ouK252o4obJ3hO8cm1Bs6jUy67jSYIwJBoIqNsVQFzo1HCi0efvnW0v3wE1oajLUj2Iw4BqWct2ID9lhX4tWPMORP6HFZHCOwvD2MDHDOC2Mel/Gc/giYn4QFz5N+1zvdW9UHWwv6w4a5x1kOKMIvzMINEgou2tWR1+IIrainoNpuWYD8qJu05kXghheUBbjgtJ7erSEomYiuh1IjzBHSKskJybbCwcscUardWXfAdPXqXM0ofaDA8KosC5u2n3pihdHz6R6UxgG2hL8LwVxg3FdDl1O2oUej9T+3Kp1E3C5QTqxeLhmvuVGlluaYMMmoEPMchjeuh4Dg/ORBLO6EV4lYpzqWgEGiMmWtiToWVop7yZkXa5D91TEtCE0TZpchv4+ESixCaFmuOEykqVsTvHRSTvPdZW/tk12bX76aP1v7n9W18SX3e+ft4cUHmnbUTNCy2QlLDdbTw1mGAJebqy8I8DgYElVbnjjqnWaArfqyjHA7bSan9AiO/E/hvhbmjn+v8VuF4snISTLlbFuj+oZkmXVZhiuyYTreN16O6qkD+g1bffNjKKb1j2HG4wvq3HSxLX5/e9hhNrUfHBuqvrFq56elYCIyV6btW6aethuI+YXMZ3vDei2L0jjl8JvMw2OVNmSMeAuFsrWDqDOIUh8uN9GqN0jhvPpqpXqcdPYZEdlN346Zbvr1PnKAJklhNHGtGc4NFDuNnFUW+M7Hi/8plnCtHYQpsl+iZNTL9has6zBaySHOTCDQJoz3WDfnUoxln1rvgPf7Whjk4pnVSf1SfbNnWkvnXVMa8ciuoeY7CwYWUKnJIm2gSiGoH/aiLOzF4/L+VmbHedz0u8jSEAyEJM6GwbhRiownJNzTnrbvqhR8N4Ktybo+bzQx4MjgeHjBFWAbrIxQhniZ/mz8UThY6CfIyy2sl5vKZfTTfuIWfyVjVqY97tbJNixIebY4u5z2jC98HIYMsZfh5NEnbIv8hRZW9VHaUdae406V8IAtw3zqWCMwIBujL+PUPaoIuwdhB3ABUxCbieUXUwoW4nszJBa3EB0OU78IqYj4XF/rmdmYO1ETOdDiC8FQ1RC2bUtyl0Z9aEo8/k22LANUhz8BEIZ7Ndk6YqX8i1DmUQziG2Dmd2HcDFw1nZP2EznBM+vjh0KpoIPgm7au20PJ/NuQq2dvH/nTZrpvBW/YT8GSQ5uR4hpBUWwF8vdtohpf4FQ+zs6ZROEsttaHGG2zrl/TDOcPQd7Bc/C0bne/tRmaosYKWnVuehU3zsOTdLg4nqcjM/C5Tx7hszttSA1pCEMVVbhq2k0cGrafJOzZ5UP2EjhqY741YppKabdPhqwH9Qo233AlqQaTjIGECvcDcamTpqU9NQ06SkUHlfXt3TFS5NpW5UYWAwgUwsx2A3t+9Iq6WgWzdl6HFTEBTcc2AWqBjYTA15McduaJQ7UoV/vWbT4WzZ+52dZ44vNpHT1ZKAwgFDFhLLr1eJV0lsDaOAJzbQNGMwO1CJTgykWA65bD2Ujs9BZtmWSx+AyVRwINTnyRbErTrVWCAYQc4qY7JsDGoZZMacGHjRwP8AFhRCwamR2YmA+tf7HTQzaQAJvwLZFMb5i6GIdwn1Dlzo7V5kadaEYgB6BGLZJKHtKMYnB3YrVNLeXLjh8/GWFEqxqTGEAGOBpn76htomKaRXA3G5FmOamx+lXK38AMOA59rIfKMalGFdaxqVT9gfddD6htn8DwAjaNgTX6JSyy9ISrSo/KxndvYjBrxhV21b5AMKLECq6yX6sGNGsZERJBw9wtB9RsaoGcOG3fUhu7CfDuURtFRXjIpTdgYi3ilG1fVXPAviRXw9hfFWM8VnIuAx2NZTpykJ9Fiz0QRsistYQylYpxjULGJfJriKGM2/QaFiNZxZiAPG3EJ+cUHaP0nMNFPPapFN2nm6Ov2sWkrUa8qBjABl4dcoW8MSemxTzaifzggsNHJMXmie8cNBpVo1PYcDFgJsdBqm2qP0bxbhawbjWuQlqzfH/VcaeahHPagzAnkuj7LOEsjsV82oU89rgScPOPvNGVj5rVhOpGrzCwEwM9OeSYfYOnbJTCGV/UsyrFua1kRjOJciUjczSM+dIPVEYUBiYgQGEw3UzM1PnTELZw4p5lcq8NhODXYEkskNG9/kzJkM9UBhQGJDHgJtTEdb0BnN4inYkOE2ysFbvY3FkP0goOxfJYHc5jL1AfjZUSYUBhYFUGIDCXqP2/m4mZi/NvGJOsczJZe6PIZInslbrhvUWldAhFcmpwgoDxWEABqq6Ye8NI1WNsutUMg3WJwa7GzZShLLh+abzZmV5Xhy9qZYUBgrFAPzXoLxHdACN2l/iTGz9gG4jsT2+U6P2ha5xrmEtXGBYLykUoaoxhQGFgWoxAD3Y/OEVr9Gos0ijzjJC2TnEYFcTkz3UEka2AQabhLKLYAKimc7BcDbfY7j7d9ViUvWmMKAwUCsGsOjdFGcm24NLZYyY7KuEssu4kh8uRRtKYmzIvP0wMZ3fEWr3iMG+7Zp1wKjWdD4EtxeEEFY6p1pJRHWuMNA+DMB4kixd8VLdGH8DtpyaaQ8hMgEYi2awjyOSJjHtxeJfo+wQPNNN9mFCnX2IYS2cT+33QKdEloy9CiYEihG1jw4UxAoDCgMKAwoDCgMKAwoDCgMKAwoDCgMKAwoDNWDg/wOkvbW/TqRzDQAAAABJRU5ErkJggg==;fontStyle=0" vertex="1" parent="XWmum2CBMNlat4GcM_Pf-253">
          <mxGeometry x="11.090000000000032" y="7.772727272727252" width="77.82545454545455" height="74.45454545454545" as="geometry" />
        </mxCell>
        <mxCell id="XWmum2CBMNlat4GcM_Pf-256" value="&lt;span style=&quot;font-size: 20px;&quot;&gt;&lt;font face=&quot;CMU Sans Serif&quot;&gt;A&lt;br&gt;P&lt;br&gt;I&lt;/font&gt;&lt;/span&gt;" style="rounded=0;whiteSpace=wrap;html=1;fontStyle=0" vertex="1" parent="1">
          <mxGeometry x="310" y="360" width="30" height="90" as="geometry" />
        </mxCell>
        <mxCell id="XWmum2CBMNlat4GcM_Pf-257" value="Orchestrated Worker Nodes" style="text;align=center;verticalAlign=middle;resizable=0;points=[];autosize=1;strokeColor=none;fillColor=none;fontStyle=0;fontSize=20;fontFamily=CMU Sans Serif;" vertex="1" parent="1">
          <mxGeometry x="270" y="670" width="260" height="40" as="geometry" />
        </mxCell>
        <mxCell id="XWmum2CBMNlat4GcM_Pf-258" style="edgeStyle=orthogonalEdgeStyle;rounded=0;orthogonalLoop=1;jettySize=auto;html=1;endArrow=classic;endFill=1;startArrow=classic;startFill=1;strokeWidth=2;fontStyle=0" edge="1" parent="1" source="XWmum2CBMNlat4GcM_Pf-254">
          <mxGeometry relative="1" as="geometry">
            <mxPoint x="390" y="490" as="targetPoint" />
          </mxGeometry>
        </mxCell>
        <mxCell id="XWmum2CBMNlat4GcM_Pf-259" value="" style="group;fontStyle=0" vertex="1" connectable="0" parent="1">
          <mxGeometry x="80" y="360" width="100" height="100" as="geometry" />
        </mxCell>
        <mxCell id="XWmum2CBMNlat4GcM_Pf-260" style="edgeStyle=orthogonalEdgeStyle;rounded=0;orthogonalLoop=1;jettySize=auto;html=1;startArrow=classic;startFill=1;endArrow=none;endFill=0;strokeWidth=2;exitX=0.5;exitY=0;exitDx=0;exitDy=0;fontStyle=0" edge="1" parent="XWmum2CBMNlat4GcM_Pf-259" source="XWmum2CBMNlat4GcM_Pf-261">
          <mxGeometry relative="1" as="geometry">
            <mxPoint x="50" y="-70" as="targetPoint" />
          </mxGeometry>
        </mxCell>
        <mxCell id="XWmum2CBMNlat4GcM_Pf-261" value="" style="rounded=0;whiteSpace=wrap;html=1;fillColor=#eeeeee;strokeColor=#36393d;align=left;fontStyle=0" vertex="1" parent="XWmum2CBMNlat4GcM_Pf-259">
          <mxGeometry x="5" width="90" height="90.00000000000001" as="geometry" />
        </mxCell>
        <mxCell id="XWmum2CBMNlat4GcM_Pf-262" value="" style="shape=image;verticalLabelPosition=bottom;labelBackgroundColor=default;verticalAlign=top;aspect=fixed;imageAspect=0;image=data:image/svg+xml,PHN2ZyB4bWxucz0iaHR0cDovL3d3dy53My5vcmcvMjAwMC9zdmciIHZpZXdCb3g9IjAgMCA5MiA5MiIgaGVpZ2h0PSI5MnB0IiB3aWR0aD0iOTJwdCI+PGRlZnM+PGNsaXBQYXRoIGlkPSJhIj48cGF0aCBkPSJNMCAuMTEzaDkxLjg4N1Y5MkgwWm0wIDAiLz48L2NsaXBQYXRoPjwvZGVmcz48ZyBjbGlwLXBhdGg9InVybCgjYSkiPjxwYXRoIGQ9Ik05MC4xNTYgNDEuOTY1IDUwLjAzNiAxLjg0OGE1LjkxOCA1LjkxOCAwIDAgMC04LjM3MiAwbC04LjMyOCA4LjMzMiAxMC41NjYgMTAuNTY2YTcuMDMgNy4wMyAwIDAgMSA3LjIzIDEuNjg0IDcuMDM0IDcuMDM0IDAgMCAxIDEuNjY5IDcuMjc3bDEwLjE4NyAxMC4xODRhNy4wMjggNy4wMjggMCAwIDEgNy4yNzggMS42NzIgNy4wNCA3LjA0IDAgMCAxIDAgOS45NTcgNy4wNSA3LjA1IDAgMCAxLTkuOTY1IDAgNy4wNDQgNy4wNDQgMCAwIDEtMS41MjgtNy42NmwtOS41LTkuNDk3VjU5LjM2YTcuMDQgNy4wNCAwIDAgMSAxLjg2IDExLjI5IDcuMDQgNy4wNCAwIDAgMS05Ljk1NyAwIDcuMDQgNy4wNCAwIDAgMSAwLTkuOTU4IDcuMDYgNy4wNiAwIDAgMSAyLjMwNC0xLjUzOVYzMy45MjZhNy4wNDkgNy4wNDkgMCAwIDEtMy44Mi05LjIzNEwyOS4yNDIgMTQuMjcyIDEuNzMgNDEuNzc3YTUuOTI1IDUuOTI1IDAgMCAwIDAgOC4zNzFMNDEuODUyIDkwLjI3YTUuOTI1IDUuOTI1IDAgMCAwIDguMzcgMGwzOS45MzQtMzkuOTM0YTUuOTI1IDUuOTI1IDAgMCAwIDAtOC4zNzEiIHN0eWxlPSJzdHJva2U6bm9uZTtmaWxsLXJ1bGU6bm9uemVybztmaWxsOiNmMDNjMmU7ZmlsbC1vcGFjaXR5OjEiLz48L2c+PC9zdmc+;fontStyle=0" vertex="1" parent="XWmum2CBMNlat4GcM_Pf-259">
          <mxGeometry x="11.940000000000046" y="6.939999999999987" width="76.11" height="76.11" as="geometry" />
        </mxCell>
        <mxCell id="XWmum2CBMNlat4GcM_Pf-263" value="" style="group;fontStyle=0" vertex="1" connectable="0" parent="1">
          <mxGeometry x="180" y="170" width="440" height="150" as="geometry" />
        </mxCell>
        <mxCell id="XWmum2CBMNlat4GcM_Pf-264" value="" style="group;fontStyle=0" vertex="1" connectable="0" parent="XWmum2CBMNlat4GcM_Pf-263">
          <mxGeometry y="40" width="440" height="110" as="geometry" />
        </mxCell>
        <mxCell id="XWmum2CBMNlat4GcM_Pf-265" value="" style="rounded=0;whiteSpace=wrap;html=1;fillColor=#B3B3B3;strokeColor=#23445d;fontStyle=0" vertex="1" parent="XWmum2CBMNlat4GcM_Pf-264">
          <mxGeometry width="440" height="110" as="geometry" />
        </mxCell>
        <mxCell id="XWmum2CBMNlat4GcM_Pf-266" value="&lt;span style=&quot;font-size: 20px;&quot;&gt;&lt;font face=&quot;CMU Sans Serif&quot;&gt;A&lt;br&gt;P&lt;br&gt;I&lt;/font&gt;&lt;/span&gt;" style="rounded=0;whiteSpace=wrap;html=1;fontStyle=0" vertex="1" parent="XWmum2CBMNlat4GcM_Pf-264">
          <mxGeometry width="30" height="110" as="geometry" />
        </mxCell>
        <mxCell id="XWmum2CBMNlat4GcM_Pf-267" value="" style="group;fontStyle=0" vertex="1" connectable="0" parent="XWmum2CBMNlat4GcM_Pf-264">
          <mxGeometry x="50" y="20" width="370" height="70" as="geometry" />
        </mxCell>
        <mxCell id="XWmum2CBMNlat4GcM_Pf-268" value="&lt;font face=&quot;CMU Sans Serif&quot; size=&quot;1&quot; color=&quot;#000000&quot;&gt;&lt;span style=&quot;font-size: 20px;&quot;&gt;&lt;span&gt;Manager&lt;/span&gt;&lt;/span&gt;&lt;/font&gt;" style="rounded=0;whiteSpace=wrap;html=1;fillColor=#eeeeee;strokeColor=#36393d;fontStyle=0" vertex="1" parent="XWmum2CBMNlat4GcM_Pf-267">
          <mxGeometry width="110" height="70" as="geometry" />
        </mxCell>
        <mxCell id="XWmum2CBMNlat4GcM_Pf-269" value="&lt;font style=&quot;font-size: 18px;&quot; face=&quot;CMU Sans Serif&quot; color=&quot;#000000&quot;&gt;&lt;span style=&quot;&quot;&gt;Container Image Registry&lt;/span&gt;&lt;/font&gt;" style="rounded=0;whiteSpace=wrap;html=1;fillColor=#eeeeee;strokeColor=#36393d;fontStyle=0" vertex="1" parent="XWmum2CBMNlat4GcM_Pf-267">
          <mxGeometry x="130" width="110" height="70" as="geometry" />
        </mxCell>
        <mxCell id="XWmum2CBMNlat4GcM_Pf-270" value="&lt;font face=&quot;CMU Sans Serif&quot; size=&quot;1&quot; color=&quot;#000000&quot;&gt;&lt;span style=&quot;font-size: 30px;&quot;&gt;...&lt;/span&gt;&lt;/font&gt;" style="rounded=0;whiteSpace=wrap;html=1;fillColor=#eeeeee;strokeColor=#36393d;fontStyle=0" vertex="1" parent="XWmum2CBMNlat4GcM_Pf-267">
          <mxGeometry x="260" width="110" height="70" as="geometry" />
        </mxCell>
        <mxCell id="XWmum2CBMNlat4GcM_Pf-271" value="FLOps Management" style="text;align=center;verticalAlign=middle;resizable=0;points=[];autosize=1;strokeColor=none;fillColor=none;fontStyle=0;fontSize=20;fontFamily=CMU Sans Serif;" vertex="1" parent="XWmum2CBMNlat4GcM_Pf-263">
          <mxGeometry x="115" width="190" height="40" as="geometry" />
        </mxCell>
        <mxCell id="XWmum2CBMNlat4GcM_Pf-272" value="" style="group;fontStyle=0" vertex="1" connectable="0" parent="1">
          <mxGeometry x="185" y="490" width="410" height="180" as="geometry" />
        </mxCell>
        <mxCell id="XWmum2CBMNlat4GcM_Pf-273" value="" style="rounded=1;whiteSpace=wrap;html=1;fillColor=#b3b3b3;fontStyle=0" vertex="1" parent="XWmum2CBMNlat4GcM_Pf-272">
          <mxGeometry width="410" height="180" as="geometry" />
        </mxCell>
        <mxCell id="XWmum2CBMNlat4GcM_Pf-274" value="" style="group;fontStyle=0" vertex="1" connectable="0" parent="XWmum2CBMNlat4GcM_Pf-272">
          <mxGeometry x="150" width="120" height="80" as="geometry" />
        </mxCell>
        <mxCell id="XWmum2CBMNlat4GcM_Pf-275" value="&lt;font face=&quot;CMU Sans Serif&quot; size=&quot;1&quot; color=&quot;#000000&quot;&gt;&lt;span style=&quot;font-size: 20px;&quot;&gt;Learners&lt;/span&gt;&lt;/font&gt;" style="rounded=1;whiteSpace=wrap;html=1;fillColor=#eeeeee;strokeColor=#36393d;fontStyle=0" vertex="1" parent="XWmum2CBMNlat4GcM_Pf-274">
          <mxGeometry y="10" width="110" height="70" as="geometry" />
        </mxCell>
        <mxCell id="XWmum2CBMNlat4GcM_Pf-276" value="" style="group;fontStyle=0" vertex="1" connectable="0" parent="XWmum2CBMNlat4GcM_Pf-272">
          <mxGeometry x="150" y="90" width="120" height="80" as="geometry" />
        </mxCell>
        <mxCell id="XWmum2CBMNlat4GcM_Pf-277" value="&lt;font style=&quot;font-size: 18px;&quot; face=&quot;CMU Sans Serif&quot; color=&quot;#000000&quot;&gt;&lt;span style=&quot;&quot;&gt;Aggregators&lt;/span&gt;&lt;/font&gt;" style="rounded=1;whiteSpace=wrap;html=1;fillColor=#eeeeee;strokeColor=#36393d;fontStyle=0" vertex="1" parent="XWmum2CBMNlat4GcM_Pf-276">
          <mxGeometry y="10" width="110" height="70" as="geometry" />
        </mxCell>
        <mxCell id="XWmum2CBMNlat4GcM_Pf-278" value="" style="group;fontStyle=0" vertex="1" connectable="0" parent="XWmum2CBMNlat4GcM_Pf-272">
          <mxGeometry x="280" width="120" height="80" as="geometry" />
        </mxCell>
        <mxCell id="XWmum2CBMNlat4GcM_Pf-279" value="&lt;font style=&quot;font-size: 18px;&quot; face=&quot;CMU Sans Serif&quot; color=&quot;#000000&quot;&gt;&lt;span style=&quot;&quot;&gt;Container Image&lt;br&gt;Builders&lt;/span&gt;&lt;/font&gt;" style="rounded=1;whiteSpace=wrap;html=1;fillColor=#eeeeee;strokeColor=#36393d;fontStyle=0" vertex="1" parent="XWmum2CBMNlat4GcM_Pf-278">
          <mxGeometry y="10" width="110" height="70" as="geometry" />
        </mxCell>
        <mxCell id="XWmum2CBMNlat4GcM_Pf-280" value="" style="group;fontStyle=0" vertex="1" connectable="0" parent="XWmum2CBMNlat4GcM_Pf-272">
          <mxGeometry x="20" y="90" width="120" height="80" as="geometry" />
        </mxCell>
        <mxCell id="XWmum2CBMNlat4GcM_Pf-281" value="&lt;font style=&quot;font-size: 20px;&quot; face=&quot;CMU Sans Serif&quot; color=&quot;#000000&quot;&gt;&lt;span style=&quot;&quot;&gt;Inference&lt;br&gt;Servers&lt;/span&gt;&lt;/font&gt;" style="rounded=1;whiteSpace=wrap;html=1;fillColor=#eeeeee;strokeColor=#36393d;fontStyle=0" vertex="1" parent="XWmum2CBMNlat4GcM_Pf-280">
          <mxGeometry y="10" width="110" height="70" as="geometry" />
        </mxCell>
        <mxCell id="XWmum2CBMNlat4GcM_Pf-282" value="" style="group;fontStyle=0" vertex="1" connectable="0" parent="XWmum2CBMNlat4GcM_Pf-272">
          <mxGeometry x="20" width="155" height="120" as="geometry" />
        </mxCell>
        <mxCell id="XWmum2CBMNlat4GcM_Pf-283" value="&lt;font style=&quot;font-size: 18px;&quot; face=&quot;CMU Sans Serif&quot; color=&quot;#000000&quot;&gt;&lt;span style=&quot;&quot;&gt;FL Tracking Servers&lt;br&gt;GUI&lt;/span&gt;&lt;/font&gt;" style="rounded=1;whiteSpace=wrap;html=1;fillColor=#eeeeee;strokeColor=#36393d;shape=label;fixedSize=1;fontStyle=0" vertex="1" parent="XWmum2CBMNlat4GcM_Pf-282">
          <mxGeometry y="10" width="110" height="70" as="geometry" />
        </mxCell>
        <mxCell id="XWmum2CBMNlat4GcM_Pf-284" value="" style="group;fontStyle=0" vertex="1" connectable="0" parent="XWmum2CBMNlat4GcM_Pf-272">
          <mxGeometry x="280" y="90" width="120" height="80" as="geometry" />
        </mxCell>
        <mxCell id="XWmum2CBMNlat4GcM_Pf-285" value="&lt;font face=&quot;CMU Sans Serif&quot; size=&quot;1&quot; color=&quot;#000000&quot;&gt;&lt;span style=&quot;font-size: 30px;&quot;&gt;...&lt;/span&gt;&lt;/font&gt;" style="rounded=1;whiteSpace=wrap;html=1;fillColor=#eeeeee;strokeColor=#36393d;fontStyle=0" vertex="1" parent="XWmum2CBMNlat4GcM_Pf-284">
          <mxGeometry y="10" width="110" height="70" as="geometry" />
        </mxCell>
        <mxCell id="XWmum2CBMNlat4GcM_Pf-286" style="edgeStyle=orthogonalEdgeStyle;rounded=0;orthogonalLoop=1;jettySize=auto;html=1;entryX=0;entryY=0.5;entryDx=0;entryDy=0;exitX=0.5;exitY=1;exitDx=0;exitDy=0;strokeWidth=2;fontStyle=0" edge="1" parent="1" source="XWmum2CBMNlat4GcM_Pf-252" target="XWmum2CBMNlat4GcM_Pf-283">
          <mxGeometry relative="1" as="geometry" />
        </mxCell>
        <mxCell id="XWmum2CBMNlat4GcM_Pf-287" style="edgeStyle=orthogonalEdgeStyle;rounded=0;orthogonalLoop=1;jettySize=auto;html=1;entryX=0;entryY=0.5;entryDx=0;entryDy=0;exitX=0.5;exitY=1;exitDx=0;exitDy=0;strokeWidth=2;startArrow=classic;startFill=1;fontStyle=0" edge="1" parent="1" source="XWmum2CBMNlat4GcM_Pf-252" target="XWmum2CBMNlat4GcM_Pf-281">
          <mxGeometry relative="1" as="geometry" />
        </mxCell>
        <mxCell id="XWmum2CBMNlat4GcM_Pf-288" style="edgeStyle=orthogonalEdgeStyle;rounded=0;orthogonalLoop=1;jettySize=auto;html=1;entryX=0.266;entryY=-0.008;entryDx=0;entryDy=0;entryPerimeter=0;exitX=0.26;exitY=1.013;exitDx=0;exitDy=0;exitPerimeter=0;dashed=1;endArrow=none;endFill=0;startArrow=classic;startFill=1;strokeWidth=2;fontStyle=0" edge="1" parent="1" source="XWmum2CBMNlat4GcM_Pf-265" target="XWmum2CBMNlat4GcM_Pf-273">
          <mxGeometry relative="1" as="geometry" />
        </mxCell>
        <mxCell id="XWmum2CBMNlat4GcM_Pf-289" style="edgeStyle=orthogonalEdgeStyle;rounded=0;orthogonalLoop=1;jettySize=auto;html=1;strokeWidth=3;exitX=0.855;exitY=0.99;exitDx=0;exitDy=0;exitPerimeter=0;fontStyle=0" edge="1" parent="1" source="XWmum2CBMNlat4GcM_Pf-268" target="XWmum2CBMNlat4GcM_Pf-256">
          <mxGeometry relative="1" as="geometry" />
        </mxCell>
        <mxCell id="XWmum2CBMNlat4GcM_Pf-290" value="Oakestra&#xa;Control Plane" style="text;align=center;verticalAlign=middle;resizable=0;points=[];autosize=1;strokeColor=none;fillColor=none;fontStyle=0;fontSize=20;fontFamily=CMU Sans Serif;" vertex="1" parent="1">
          <mxGeometry x="440" y="375" width="140" height="60" as="geometry" />
        </mxCell>
        <mxCell id="XWmum2CBMNlat4GcM_Pf-291" value="ML Git&#xa;Repository" style="text;align=center;verticalAlign=middle;resizable=0;points=[];autosize=1;strokeColor=none;fillColor=none;fontStyle=0;fontSize=20;fontFamily=CMU Sans Serif;" vertex="1" parent="1">
          <mxGeometry x="175" y="375" width="110" height="60" as="geometry" />
        </mxCell>
      </root>
    </mxGraphModel>
  </diagram>
</mxfile>
